<svg width="1000" height="700" viewBox="0 0 1000 700" xmlns="http://www.w3.org/2000/svg">
  <defs>
    <filter id="grain-14">
      <feTurbulence type="fractalNoise" baseFrequency="0.012 0.06" numOctaves="3" seed="14" result="noise"/>
      <feColorMatrix in="noise" type="matrix" values="0 0 0 0 0.1  0 0 0 0 0.06  0 0 0 0 0.02  0 0 0 0.35 0"/>
      <feComposite operator="over" in2="SourceGraphic"/>
    </filter>
    <linearGradient id="sheen-14" x1="0" y1="0" x2="1" y2="1">
      <stop offset="0%" stop-color="#9C7A4E" stop-opacity="0.15"/>
      <stop offset="100%" stop-color="#000000" stop-opacity="0.1"/>
    </linearGradient>
  </defs>
  <rect width="1000" height="700" fill="#6D4C2F"/>
  <g filter="url(#grain-14)"><rect x="0" y="0" width="1000" height="116.66666666666667" fill="#6D4C2F" opacity="0.9"/>
    <line x1="0" y1="0" x2="1000" y2="0" stroke="#9C7A4E" stroke-opacity="0.25" stroke-width="2"/><rect x="0" y="116.66666666666667" width="1000" height="116.66666666666667" fill="#5A3E24" opacity="0.9"/>
    <line x1="0" y1="116.66666666666667" x2="1000" y2="116.66666666666667" stroke="#9C7A4E" stroke-opacity="0.25" stroke-width="2"/><rect x="0" y="233.33333333333334" width="1000" height="116.66666666666667" fill="#6D4C2F" opacity="0.9"/>
    <line x1="0" y1="233.33333333333334" x2="1000" y2="233.33333333333334" stroke="#9C7A4E" stroke-opacity="0.25" stroke-width="2"/><rect x="0" y="350" width="1000" height="116.66666666666667" fill="#5A3E24" opacity="0.9"/>
    <line x1="0" y1="350" x2="1000" y2="350" stroke="#9C7A4E" stroke-opacity="0.25" stroke-width="2"/><rect x="0" y="466.6666666666667" width="1000" height="116.66666666666667" fill="#6D4C2F" opacity="0.9"/>
    <line x1="0" y1="466.6666666666667" x2="1000" y2="466.6666666666667" stroke="#9C7A4E" stroke-opacity="0.25" stroke-width="2"/><rect x="0" y="583.3333333333334" width="1000" height="116.66666666666667" fill="#5A3E24" opacity="0.9"/>
    <line x1="0" y1="583.3333333333334" x2="1000" y2="583.3333333333334" stroke="#9C7A4E" stroke-opacity="0.25" stroke-width="2"/></g>
  <rect width="1000" height="700" fill="url(#sheen-14)"/>
  <text x="24" y="676" font-family="sans-serif" font-size="18" fill="#F3EDE4" fill-opacity="0.85">تركيب لدى عميل 5</text>
</svg>